<svg xmlns="http://www.w3.org/2000/svg" class="css-1j8o68f" viewBox="0 0 250 144.95"><defs id="SvgjsDefs1725"><linearGradient id="SvgjsLinearGradient1730"><stop id="SvgjsStop1731" stop-color="#2d388a" offset="0"/><stop id="SvgjsStop1732" stop-color="#00aeef" offset="1"/></linearGradient></defs><g id="SvgjsG1726" featurekey="aMgJeN-0" transform="matrix(0.6906470210525306,0,0,0.6906470210525306,69.751082705866,-15.441524161527685)" fill="#15803d"><g xmlns="http://www.w3.org/2000/svg"><path d="M52.1,49c5.2,5.8,12.2,9.8,19.9,11.1c1.3,0.2,2.7,0.4,4,0.4c2.4,0,4.7-0.4,7-1.1l2.3-0.7v5.2c-1.2,0.2-2.3,0.7-3.4,1.3   l-0.1,0.1c-8.7,5.4-16.4,12.2-22.8,20c1.6,0.1,3.2,0.3,4.8,0.6c5.8-6.7,12.6-12.5,20.1-17.2l0.1-0.1c0.9-0.6,2-0.9,3.1-0.9   c0.1,0,0.1,0,0.2,0c0.1,0,0.1,0,0.2,0c1.1,0,2.1,0.3,3.1,0.9l0.1,0.1c11.3,7,20.9,16.5,28,27.7l3.7-1.6   c-7.5-11.9-17.6-22-29.6-29.5l-0.1-0.1c-1.1-0.7-2.2-1.1-3.4-1.3V51.4c0-0.1,0-0.3,0-0.4l2.4,0.8c2.3,0.7,4.6,1.1,7,1.1   c1.4,0,2.7-0.1,4-0.4c7.7-1.4,14.7-5.3,19.9-11.1c3.5-4,8.1-6.8,13.3-8.1l3.5-0.9l-2.8-2.7c-5.7-5.5-13.6-8.2-21.3-7.1l-1.4,0.2   c-8.4,1.2-15.9,5.5-21.2,12.1c-2.1,2.6-3.7,5.6-4.8,8.8L86,49.2c-1-2.4-2.3-4.7-4-6.7c-5.3-6.6-12.8-10.9-21.2-12.1l-1.4-0.2   c-7.7-1-15.6,1.6-21.3,7.1L35.3,40l3.5,0.9C44,42.2,48.5,45,52.1,49z M95.7,37.3c4.6-5.8,11.2-9.6,18.6-10.6l1.3-0.2l0.1,0   c0.7-0.1,1.4-0.2,2.2-0.2c4.8-0.1,9.5,1.4,13.4,4.2c-4.5,1.7-8.5,4.5-11.8,8.2c-4.6,5.1-10.8,8.6-17.6,9.8   c-1.1,0.2-2.2,0.3-3.4,0.3c-1.5,0-3-0.2-4.5-0.6c4.7-5.7,14.1-15.3,13.2-14.9l-0.2,0.1c-5.9,2.6-11.2,6.6-15.4,11.5l0-0.1   C92.6,42.1,93.9,39.6,95.7,37.3z M56.8,34c0.7,0,1.4,0.1,2,0.2l1.4,0.2c7.4,1,14,4.8,18.6,10.6c1.3,1.6,2.3,3.4,3.2,5.2   c-3.7-3.3-8.2-5.8-13.1-7.1c-1.1-0.3,7.6,7.3,10.9,10.5l1.8,1.7c0.1,0.1,0.2,0.1,0.2,0.2l-0.2,0.1c-1.8,0.6-3.7,0.9-5.6,0.9   c-1.2,0-2.3-0.1-3.5-0.3c-6.8-1.2-13-4.7-17.6-9.8c-3.2-3.6-7.3-6.4-11.8-8.2C47.2,35.3,52.1,33.8,56.8,34z"/><path d="M151.6,97.4c-2-3.8-5.6-5.7-10.6-5.8c-2.6,0-5.3,0.5-7.9,1.7L113,102c-0.4-1.3-1.1-2.5-2.1-3.4c-1.7-1.7-3.9-2.6-6.2-2.6   c0,0,0,0,0,0H90c-2.8,0-10-1.9-19.7-5.3c-5.3-1.9-10.7-2.6-15.9-2.3c-2.7,0.2-5.1,0.6-7.1,1.2c-4.2,1.4-7.9,3.5-11.1,5.5   c-1.7,1-3.6,1.5-5.6,1.5h-1.7v4h1.7c2.7,0,5.3-0.7,7.6-2.1c3.1-1.8,6.5-3.9,10.3-5.1c1.7-0.6,3.8-0.9,6.1-1   c4.6-0.3,9.5,0.4,14.3,2.1c7.3,2.5,16.9,5.5,21,5.5h14.6c0,0,0,0,0,0c1.3,0,2.5,0.5,3.4,1.4c0.9,0.9,1.4,2.2,1.4,3.5   c0,2.7-2.2,4.9-4.8,4.9l-28.2,0l0,4l28.2,0c4.4,0,8-3.3,8.7-7.5l21.4-9.2c2.1-0.9,4.2-1.3,6.2-1.3c0,0,0.1,0,0.1,0   c3.5,0,5.7,1.2,7.1,3.7c0.7,1.2,0.2,2.7-0.9,3.4l-52,26c-2.3,1.2-5,1.6-7.5,1.4l-46-6.9l-12.8,0v4h12.4l45.9,6.9   c0.6,0.1,1.3,0.1,1.9,0.1c2.7,0,5.4-0.6,7.9-1.9l52-26.1C152.2,104.6,153.3,100.6,151.6,97.4z"/><path d="M7.6,137.7h17.9V137v-9.8v-4v-22.7v-4v-4.1H7.6V137.7z M11.6,96.3h9.9v37.4h-9.9V96.3z"/></g></g><g id="SvgjsG1727" featurekey="8L6ael-0" transform="matrix(2.9950160147622995,0,0,2.9950160147622995,-2.3361116917590357,85.04488668057846)" fill="url(#SvgjsLinearGradient1730)"><path d="M9 7.859999999999999 q-0.26 -0.04 -0.43 -0.24 t-0.17 -0.46 l0 -1.46 q0 -0.34 0.24 -0.54 t0.56 -0.16 q1.72 0.28 3.06 1.22 q1.74 1.26 2.46 3.34 q0.12 0.34 -0.08 0.64 t-0.58 0.3 l-1.6 0 q-0.22 0 -0.4 -0.11 t-0.26 -0.31 q-0.44 -1.04 -1.34 -1.66 q-0.7 -0.44 -1.46 -0.56 z M14.06 14.5 q0.38 0 0.58 0.3 t0.08 0.64 q-0.72 2.08 -2.46 3.34 q-1.34 0.94 -3.06 1.22 l-0.1 0 q-0.28 0 -0.46 -0.18 q-0.24 -0.18 -0.24 -0.52 l0 -1.46 q0 -0.26 0.16 -0.46 t0.42 -0.24 q0.84 -0.12 1.48 -0.56 q0.9 -0.62 1.34 -1.66 q0.08 -0.2 0.26 -0.31 t0.4 -0.11 l1.6 0 z M6.9 5.24 q0.26 0.2 0.26 0.54 l0 1.56 q0 0.22 -0.15 0.41 t-0.37 0.27 q-0.28 0.06 -0.44 0.14 q-0.8 0.36 -1.36 0.98 q-1.14 1.28 -1.14 3.35 t1.14 3.37 q0.7 0.8 1.8 1.12 q0.22 0.06 0.37 0.25 t0.15 0.41 l0 1.58 q0 0.34 -0.26 0.54 q-0.18 0.16 -0.46 0.16 l-0.14 0 q-2.14 -0.46 -3.62 -2.08 q-1.9 -2.14 -1.9 -5.34 t1.9 -5.34 q1.48 -1.64 3.62 -2.06 q0.32 -0.08 0.6 0.14 z M19.488 10.12 q-0.28 0 -0.49 -0.21 t-0.21 -0.49 l0 -3.72 q0 -0.28 0.21 -0.49 t0.49 -0.21 l1.52 0 q0.3 0 0.5 0.21 t0.2 0.49 l0 3.72 q0 0.28 -0.2 0.49 t-0.5 0.21 l-1.52 0 z M30.348 5 q0.28 0 0.49 0.21 t0.21 0.49 l0 13.44 q0 0.28 -0.21 0.49 t-0.49 0.21 l-1.52 0 q-0.3 0 -0.5 -0.21 t-0.2 -0.49 l0 -5.28 l-6.42 0 l0 5.28 q0 0.28 -0.2 0.49 t-0.5 0.21 l-1.52 0 q-0.28 0 -0.49 -0.21 t-0.21 -0.49 l0 -7.48 q0 -0.28 0.21 -0.49 t0.49 -0.21 l8.64 0 l0 -5.26 q0 -0.28 0.2 -0.49 t0.5 -0.21 l1.52 0 z M49.216 18.86 q0.14 0.32 -0.07 0.65 t-0.57 0.33 l-13.32 0 q-0.18 0 -0.34 -0.09 t-0.24 -0.23 q-0.22 -0.32 -0.06 -0.66 l0.62 -1.46 q0.08 -0.2 0.26 -0.32 t0.38 -0.12 l9.32 0 l-3.28 -7.84 l-2.68 6.4 q-0.08 0.2 -0.25 0.31 t-0.39 0.11 l-1.68 0 q-0.38 0 -0.6 -0.32 q-0.08 -0.14 -0.1 -0.32 t0.04 -0.34 l4.06 -9.52 q0.08 -0.2 0.25 -0.32 t0.39 -0.12 l1.92 0 q0.22 0 0.39 0.12 t0.25 0.32 z M66.50399999999999 5 q0.28 0 0.49 0.21 t0.21 0.49 l0 13.4 q0 0.28 -0.21 0.49 t-0.49 0.21 l-1.52 0 q-0.3 0 -0.5 -0.21 t-0.2 -0.49 l0 -9.04 l-3.7 4.76 q-0.22 0.26 -0.56 0.26 l0 0 q-0.16 0 -0.32 -0.07 t-0.24 -0.21 l-6.56 -8.68 q-0.12 -0.14 -0.14 -0.35 t0.08 -0.38 t0.26 -0.28 t0.36 -0.11 l1.76 0 q0.34 0 0.56 0.28 l4.24 5.6 l4.14 -5.6 q0.22 -0.28 0.58 -0.28 l1.76 0 z M54.983999999999995 14.7 q0.28 0 0.49 0.2 t0.21 0.5 l0 3.7 q0 0.28 -0.21 0.49 t-0.49 0.21 l-1.52 0 q-0.28 0 -0.49 -0.21 t-0.21 -0.49 l0 -3.7 q0 -0.3 0.21 -0.5 t0.49 -0.2 l1.52 0 z M78.952 5 q2.38 0 3.84 1.37 t1.46 3.65 t-1.44 3.64 t-3.86 1.36 l-3.82 0 l0 4.08 q0 0.28 -0.21 0.49 t-0.49 0.21 l-1.52 0 q-0.28 0 -0.49 -0.21 t-0.21 -0.49 l0 -6.2 q0 -0.28 0.21 -0.49 t0.49 -0.21 l5.92 0 q1.34 0 1.92 -0.58 q0.58 -0.52 0.58 -1.58 t-0.6 -1.63 t-1.9 -0.57 l-5.92 0 q-0.28 0 -0.49 -0.21 t-0.21 -0.49 l0 -1.44 q0 -0.28 0.21 -0.49 t0.49 -0.21 l6.04 0 z"/></g></svg>